<svg xmlns="http://www.w3.org/2000/svg" width="1112.068" height="572.757" viewBox="0 0 1112.068 572.757">
  <title>Fancy as Fuck</title>
  <g>
    <path d="M564.362,166.754c0-63.011-14.759-114-33-114" fill="none"/>
    <g>
      <g>
        <rect x="124.88" y="148.928" width="14.182" height="7.093" fill="#fbfcac"/>
        <rect x="139.062" y="148.928" width="14.182" height="7.093" fill="#f7fa59"/>
        <path d="M167.43,156.021h14.182v-7.093H167.43Z" fill="#a2a504"/>
        <path d="M181.612,156.021v0Z" fill="#a2a504"/>
        <path d="M181.612,156.021H195.8v-7.093H181.612Z" fill="#515202"/>
        <rect x="139.062" y="141.839" width="14.182" height="7.089" fill="#fcacfc"/>
        <polygon points="139.062 141.839 139.062 141.839 153.244 141.839 139.062 141.839" fill="#fcacfc"/>
        <path d="M167.43,141.839H153.248v7.089H167.43Z" fill="#f958f9"/>
        <polygon points="153.244 141.839 153.244 141.839 167.426 141.839 153.244 141.839" fill="#f958f9"/>
        <path d="M181.612,141.839v7.089H195.8v-7.093Z" fill="#a403a4"/>
        <path d="M195.8,141.839v7.089h14.182v-7.093q-7.092.006-14.182,0Z" fill="#520252"/>
        <rect x="124.88" y="156.021" width="14.182" height="28.368" fill="#55faf8"/>
        <rect x="153.244" y="156.021" width="14.182" height="28.368" fill="#00a5a3"/>
        <path d="M153.244,85.1h14.182V70.92H153.244Z" fill="#00a5a3"/>
        <rect x="110.693" y="156.021" width="14.182" height="28.368" fill="#aafdfc"/>
        <path d="M124.88,70.92H110.7V85.1H124.88Z" fill="#aafdfc"/>
        <path d="M172.158,156.021H167.43v28.368h14.182V156.021Z" fill="#005352"/>
        <path d="M167.43,85.1h14.182V70.92H167.43Z" fill="#005352"/>
        <rect x="124.88" y="184.385" width="14.182" height="7.093" fill="#affbb0"/>
        <rect x="110.693" y="0.005" width="14.182" height="14.182" fill="#affbb0"/>
        <rect x="139.062" y="184.385" width="14.182" height="7.093" fill="#60f862"/>
        <rect x="124.88" y="0.005" width="14.182" height="14.182" fill="#60f862"/>
        <path d="M172.158,184.385H167.43v7.093h14.182v-7.093Z" fill="#0ba30d"/>
        <rect x="153.244" y="0.005" width="14.182" height="14.182" fill="#0ba30d"/>
        <path d="M195.8,191.478v-7.093H181.612v7.093Z" fill="#055106"/>
        <path d="M172.158,14.187h9.454V.005H167.43V14.187Z" fill="#055106"/>
        <path d="M181.612,134.746Z" fill="#00f8f5"/>
        <path d="M181.612,191.478v7.094H195.8v-7.094Z" fill="#00f8f5"/>
        <path d="M181.612,99.288h28.365V113.47H181.612v14.182h28.369V106.377h14.182v21.275h0V106.377h14.182V99.284q-28.363.006-56.733,0Z" fill="#00f8f5"/>
        <rect x="139.062" y="156.021" width="14.182" height="28.368" fill="#00f8f5"/>
        <polygon points="139.062 70.92 124.88 70.92 124.88 85.102 139.062 85.102 153.244 85.102 153.244 70.92 139.062 70.92" fill="#00f8f5"/>
        <path d="M153.244,212.754V198.572h14.182V184.389H153.244v28.365h0Z" fill="#10f413"/>
        <path d="M167.43,134.746h0Z" fill="#10f413"/>
        <path d="M167.43,127.652V113.47h14.182V99.288H167.43V113.47H153.248v14.182Z" fill="#10f413"/>
        <rect x="209.977" y="85.102" width="28.368" height="14.182" fill="#10f413"/>
        <path d="M195.8,127.652H181.612v7.094H195.8Z" fill="#10f413"/>
        <rect x="139.062" y="0.005" width="14.182" height="14.182" fill="#10f413"/>
        <path d="M153.244,134.746H139.062v-7.094h14.182V99.288H139.062v35.458Z" fill="#0500fe"/>
        <path d="M252.527,70.92h-42.55V85.1h28.368V70.92q14.183,0,28.369,0Z" fill="#0500fe"/>
        <rect x="139.062" y="191.478" width="14.182" height="21.275" fill="#0500fe"/>
        <path d="M167.43,127.652H153.248v7.094H167.43Z" fill="#0500fe"/>
        <path d="M181.612,113.47H195.8V99.288H181.612Z" fill="#f9f40a"/>
        <path d="M209.981,127.652H195.8v7.094h14.182Z" fill="#f9f40a"/>
        <path d="M195.8,99.288V85.106H181.612V99.288Z" fill="#fff"/>
        <path d="M153.244,99.288V92.2h14.182V85.1H153.244V92.2H139.062v7.093Z" fill="#fff"/>
        <path d="M224.163,127.652V106.377H209.981v21.275Z" fill="#fff"/>
        <path d="M181.612,141.839H195.8v-7.093H181.612Z" fill="#fff"/>
        <rect x="153.244" y="134.746" width="14.182" height="7.093" fill="#fff"/>
        <path d="M124.88,99.288V92.2h14.182V85.1H124.88V92.2H110.7v7.093Z" fill="#fff"/>
        <rect x="139.062" y="56.737" width="14.182" height="14.182" fill="#fff"/>
        <path d="M139.062,141.839h-3.547V127.656h-3.546v14.183h-3.547V127.656h-3.546v21.276h14.182v-7.093Z" fill="#fff"/>
        <rect x="110.693" y="127.652" width="3.547" height="14.182" fill="#fff"/>
        <rect x="117.786" y="127.652" width="3.547" height="14.182" fill="#fff"/>
        <path d="M185.159,70.92V42.551h-3.547V70.92Z" fill="#fff"/>
        <path d="M192.248,70.92V42.551H188.7V70.92Z" fill="#fff"/>
        <path d="M167.43,70.92h3.547V42.551H167.43V70.92Z" fill="#fff"/>
        <path d="M178.066,70.92V42.551h-3.547V70.92Z" fill="#fff"/>
        <path d="M167.43,113.47v21.276h14.182V113.47Z" fill="#f70302"/>
        <rect x="167.43" y="191.478" width="14.182" height="7.093" fill="#f70302"/>
        <path d="M181.612,99.288Z" fill="#f70302"/>
        <path d="M167.426,99.288H153.244V113.47h14.182Z" fill="#f70302"/>
        <path d="M214.708,56.737h-4.727V70.92h56.733V56.737Z" fill="#f70302"/>
        <path d="M167.43,85.1V92.2H153.248v7.093h28.364V85.106Q174.522,85.1,167.43,85.1Z"/>
        <path d="M139.062,92.2h14.182V85.1H139.062V92.2H124.88v7.093h14.182V92.2Z"/>
        <path d="M209.981,127.652v7.094h14.182v-7.094Z"/>
        <path d="M224.163,113.47v14.182h14.182V106.377H224.163Z"/>
        <path d="M195.8,134.746v7.093h14.182v-7.093Z"/>
        <rect x="167.43" y="134.746" width="14.182" height="7.093"/>
        <path d="M110.693,99.288V92.2h14.183V85.1H110.693V92.2H96.511v7.093Z"/>
        <path d="M195.8,113.47h14.182V99.288H195.8Z"/>
        <path d="M181.612,70.92V42.551h3.547V70.92Zm7.093,0V42.551h3.547V70.92Zm-49.643,0h0V56.737h14.182V70.92h14.182V42.555h3.547V70.924h3.546V42.555h3.547V70.924h3.546V85.106H195.8V99.288h14.182V70.92h0V56.737H266.71V0h-85.1V14.183H124.879V56.477H110.7V70.915q14.183.007,28.365,0Z"/>
        <path d="M195.8,148.928v7.093H181.612v28.368H195.8v7.093h14.182v-42.55Q202.885,148.926,195.8,148.928Z"/>
        <rect x="209.981" y="141.839" width="14.182" height="7.093"/>
        <path d="M181.612,198.572H153.248v14.182h56.733V198.572Z"/>
        <path d="M128.426,141.839h3.547V127.656h-3.547v14.183Z"/>
        <rect x="121.333" y="127.652" width="3.547" height="14.182"/>
        <path d="M135.515,141.839h17.729v-7.093H139.062v-7.094h-3.547v14.187Z"/>
        <rect x="114.24" y="127.652" width="3.547" height="14.182"/>
        <path d="M224.163,141.839v-7.093H209.981v7.089h14.182Z" fill="#f605f6"/>
        <rect x="195.795" y="191.478" width="14.182" height="7.093" fill="#f605f6"/>
        <path d="M139.062,99.288H124.88V113.47h14.182Z" fill="#f605f6"/>
        <path d="M153.244,134.746v-7.094H139.062v7.094Z" fill="#f605f6"/>
        <path d="M181.612,148.928v-7.093H167.43v7.093Z" fill="#f605f6"/>
        <rect x="153.244" y="148.928" width="14.182" height="7.093" fill="#f9f40a"/>
        <rect x="89.418" y="70.92" width="3.547" height="14.182" fill="#fff"/>
        <rect x="96.511" y="70.92" width="3.547" height="14.182" fill="#fff"/>
        <rect x="82.329" y="70.92" width="3.547" height="14.182" fill="#fff"/>
        <rect x="92.965" y="70.92" width="3.547" height="14.182"/>
        <rect x="85.875" y="70.92" width="3.547" height="14.182"/>
        <path d="M103.6,70.92h-3.546V85.1H103.6Z"/>
        <rect x="110.693" y="70.92" width="3.547" height="14.182" fill="#fff"/>
        <rect x="117.786" y="70.92" width="3.547" height="14.182" fill="#fff"/>
        <rect x="103.604" y="70.92" width="3.547" height="14.182" fill="#fff"/>
        <rect x="114.24" y="70.92" width="3.547" height="14.182"/>
        <rect x="107.151" y="70.92" width="3.547" height="14.182"/>
        <path d="M124.88,70.92h-3.547V85.1h3.547Z"/>
        <rect x="231.256" y="70.92" width="3.547" height="28.368" fill="#fff"/>
        <rect x="238.345" y="70.92" width="3.547" height="28.368" fill="#fff"/>
        <rect x="224.163" y="70.92" width="3.547" height="28.368" fill="#fff"/>
        <rect x="234.799" y="70.92" width="3.547" height="28.368"/>
        <rect x="227.71" y="70.92" width="3.547" height="28.368"/>
        <path d="M245.438,70.92h-3.546V99.288h3.546Z"/>
        <rect x="252.527" y="70.92" width="3.547" height="28.368" fill="#fff"/>
        <rect x="259.621" y="70.92" width="3.547" height="28.368" fill="#fff"/>
        <rect x="245.438" y="70.92" width="3.547" height="28.368" fill="#fff"/>
        <rect x="256.074" y="70.92" width="3.547" height="28.368"/>
        <rect x="248.985" y="70.92" width="3.547" height="28.368"/>
        <path d="M266.714,70.92h-3.547V99.288h3.547Z"/>
        <rect x="103.604" y="28.369" width="3.547" height="14.182" fill="#fff"/>
        <rect x="110.693" y="28.369" width="3.547" height="14.182" fill="#fff"/>
        <rect x="96.511" y="28.369" width="3.547" height="14.182" fill="#fff"/>
        <rect x="107.151" y="28.369" width="3.547" height="14.182"/>
        <rect x="100.058" y="28.369" width="3.547" height="14.182"/>
        <path d="M117.786,28.369H114.24V42.551h3.546Z"/>
        <rect x="124.88" y="28.369" width="3.547" height="14.182" fill="#fff"/>
        <rect x="131.969" y="28.369" width="3.547" height="14.182" fill="#fff"/>
        <rect x="117.786" y="28.369" width="3.547" height="14.182" fill="#fff"/>
        <rect x="128.426" y="28.369" width="3.547" height="14.182"/>
        <rect x="121.333" y="28.369" width="3.547" height="14.182"/>
        <path d="M139.062,28.369h-3.547V42.551h3.547Z"/>
      </g>
      <g>
        <path d="M373.923,176.351H349.1v8.038H377.47v-8.038Z" fill="#00f8f5"/>
        <path d="M419.832,205.664H434.2L349.1,0V38.936Z" fill="#10f413"/>
        <polygon points="349.101 77.864 403.404 205.664 419.832 205.664 349.101 38.932 349.101 77.864" fill="#0500fe"/>
        <path d="M356.19,147.983h6.2L349.1,116.792v31.191Z" fill="#f605f6"/>
        <polygon points="377.466 184.389 377.47 184.389 377.47 204.952 377.466 204.952 377.466 205.664 386.977 205.664 377.466 183.348 377.466 184.389" fill="#f605f6"/>
        <path d="M334.919,184.389v7.565H349.1v-7.561Q342.011,184.387,334.919,184.389Z" fill="#f9f40a"/>
        <path d="M363.287,188.748v9.823H377.47V184.385H363.287Z" fill="#f9f40a"/>
        <path d="M317.186,204.952v-6.381h3.547v-27.9H306.551V205.66h-8.51v7.093H310.1V198.571h3.547v14.182h3.546Q317.184,208.856,317.186,204.952Z" fill="#fff"/>
        <path d="M334.919,184.389H349.1v-8.038h3.547V147.983H349.1v22.692H334.919Z" fill="#fff"/>
        <path d="M334.919,166.108V129.545H320.737v41.134h14.182Z" fill="#fff"/>
        <path d="M373.923,205.664v-7.093h-3.546v7.093H366.83v7.093h10.195v-7.093Z" fill="#fff"/>
        <path d="M388.814,212.753h5.051V205.66h-8.422v7.093Z" fill="#fff"/>
        <rect x="264" y="205.664" width="8.51" height="7.093" fill="#fff"/>
        <rect x="281.02" y="205.664" width="8.51" height="7.093" fill="#fff"/>
        <rect x="419.832" y="205.664" width="3.731" height="7.093" fill="#fff"/>
        <path d="M428.526,205.664h-1.417v7.093h3.547v-7.093Z" fill="#fff"/>
        <rect x="403.404" y="205.664" width="5.976" height="7.093" fill="#fff"/>
        <rect x="412.927" y="205.664" width="3.547" height="7.093" fill="#fff"/>
        <path d="M363.283,198.571v7.093h3.547v-7.093Z" fill="#fff"/>
        <path d="M359.737,205.664v-7.093H356.19v7.093h-3.546v-7.093H349.1v2.522H334.915v4.571h0v7.093h8.422v-7.093h9.307v7.093h7.093Z" fill="#fff"/>
        <path d="M363.283,150.821v25.53h3.547V147.983h-3.547Z" fill="#fff"/>
        <path d="M370.377,170.675v5.672h3.546V147.979h-3.546Z" fill="#fff"/>
        <path d="M356.19,156.965v19.386h3.547V147.983H356.19v8.982Z" fill="#fff"/>
        <path d="M324.279,204.952v-6.381h-3.546v14.182h3.546Z" fill="#fff"/>
        <path d="M331.373,204.952v-6.381h-3.547v14.182h3.546v-7.8Z" fill="#fff"/>
        <path d="M349.1,116.8,362.4,147.987H377.47v35.365l9.511,22.312h16.427L349.1,77.864Z" fill="#f70302"/>
        <path d="M334.919,201.093H349.1v-9.139H334.919V170.679H320.737v13.71h0v14.186h3.546v14.182h3.547V198.575h3.547v14.182h3.546Q334.917,206.921,334.919,201.093Z"/>
        <path d="M370.377,205.664v-7.093H366.83v7.093h-3.547v-7.093h0V184.389H349.1v14.182h3.543v7.093h3.546v-7.093h3.547v7.093h0v7.093h7.093v-7.093Z"/>
        <rect x="393.865" y="205.664" width="9.539" height="7.093"/>
        <rect x="343.341" y="205.664" width="9.307" height="7.089"/>
        <path d="M272.51,212.753h8.51V205.66h8.51v7.093h8.511V205.66h8.51v-7.093h0V170.675h14.182V129.541h14.182v41.134H349.1V0L264,205.664h8.51Z"/>
        <rect x="423.563" y="205.664" width="3.547" height="7.093"/>
        <rect x="416.474" y="205.664" width="3.362" height="7.093"/>
        <path d="M430.656,212.753H434.2V205.66h-3.546Z"/>
        <rect x="409.381" y="205.664" width="3.547" height="7.093"/>
        <path d="M377.466,198.571h-3.547v7.093h3.1v7.093h8.422v-7.093h-7.977v-7.093Z"/>
        <path d="M366.83,170.675v5.672h3.547V147.979H366.83Z"/>
        <path d="M359.737,150.821v25.53h3.546V147.983h-3.546Z"/>
        <path d="M373.923,175.03v1.321h3.547V147.983h-3.547V175.03Z"/>
        <path d="M356.19,172.236V147.987h-3.546v28.368h3.546Z"/>
        <path d="M320.733,204.952v-6.381h-3.547v14.182h3.547v-7.8Z"/>
        <path d="M313.644,204.952v-6.381H310.1v14.182h3.547Z"/>
      </g>
      <g>
        <path d="M569.754,99.289v12.6l13.9,16.892.008,27.24h14.174V141.836h14.182v22.452l.064.08V170.2H626.2V151.335L569.754,81.064Z" fill="#00f8f5"/>
        <path d="M548.883,70.544h13.185l-11.312-13.8H541.1v13.8Z" fill="#00f8f5"/>
        <path d="M550.556.006h61.4V14.144l.064.076V42.556H626.2V.006H550.556Z" fill="#10f413"/>
        <path d="M597.77,24.483l0,.008,0,18.069h14.174v-.748l.064.076V14.22l-.064-.076V.006H597.766V24.483Z" fill="#0500fe"/>
        <path d="M626.2,212.687V170.208H612.084v-5.832l-.064-.08V141.844H597.838v8.014H583.664l-.008-21.072-13.9-16.892v1.581H546.177Z" fill="#0500fe"/>
        <polygon points="583.588 0.006 583.588 7.155 583.588 0.006 577.736 0.006 583.588 0.006" fill="#0500fe"/>
        <polygon points="626.202 56.738 612.016 56.738 612.016 70.544 626.202 70.544 626.202 59.136 626.202 59.216 626.202 56.738" fill="#0500fe"/>
        <path d="M583.652,70.544h-13.9v-13.8h-19l11.312,13.8h7.686V81.068L626.2,151.339V120.628L585.845,70.544Z" fill="#f9f40a"/>
        <path d="M546.173,113.471h2.45V99.289h-3.287V70.544H541.1v42.931h5.016" fill="#fff"/>
        <path d="M562.981,99.289h-3.459V70.544h-3.546V99.289H555.8v14.182h7.177V99.289Z" fill="#fff"/>
        <path d="M563.065,99.289h3.547V70.544h-3.547Z" fill="#fff"/>
        <path d="M548.883,99.289h3.546V70.544h-3.546Z" fill="#fff"/>
        <path d="M597.834,42.556v13.81h0v.372h14.182V42.556Z" fill="#fff"/>
        <path d="M527.091,113.471v42.551h7.177V105.173h-7.177Z" fill="#fff"/>
        <rect x="498.551" y="113.471" width="7.093" height="42.551" fill="#fff"/>
        <path d="M560.011,37.649v4.907h4.727V.006h-4.727V37.649Z" fill="#fff"/>
        <path d="M555.219,56.738h.064V.006h-4.727v42.55h-4.727V.006H541.1V56.738Z" fill="#fff"/>
        <path d="M593.107,56.366h-4.728V70.544h4.728V56.366Z" fill="#fff"/>
        <path d="M583.652,56.738V42.556h-13.9V56.738h0v13.8H574.2V56.362h4.727V70.54h4.728Z" fill="#fff"/>
        <rect x="456" y="99.289" width="14.182" height="5.884" fill="#fff"/>
        <rect x="484.368" y="99.289" width="14.182" height="5.884" fill="#fff"/>
        <path d="M512.733,99.289v56.733h7.177V105.173h7V99.289Z" fill="#fff"/>
        <path d="M577.736.006h0Z" fill="#f70302"/>
        <path d="M626.2,70.544H612.02v-13.8H597.838v13.8H612.02L626.2,86.864Z" fill="#f70302"/>
        <path d="M611.956,42.556h.064v-.668l-.064-.076Z" fill="#f70302"/>
        <path d="M583.588,7.155V37.072l.008.008v5.476h14.186l0-18.069,0-.008V.006H583.592Z" fill="#f70302"/>
        <path d="M534.268,113.471v42.551h-7.177V105.173h7.177Zm-7.349-8.3h-7v50.849h-7.177V105.173h0V99.289h14.182Zm-21.275,50.849h-7.093V113.471h7.093Zm-21.276-50.849V99.289h14.183v5.884Zm-14.182,0H456V99.289h14.182v5.884Zm70.915,2.01V99.289h-6.32L456,.006V212.759h85.1V107.183Z"/>
        <path d="M555.972,99.289V70.544h-3.543V99.289h-3.546V70.544h-3.547V99.289h3.287v14.182H555.8V99.289Z"/>
        <path d="M569.754,99.289V70.544h-3.142V99.289h-3.547V70.544h-3.547V99.289h3.459v14.182h6.777V99.289Z"/>
        <path d="M612.565,42.556h-.549V56.738H626.2V42.556Z"/>
        <path d="M569.754,56.738h0V.006h-5.016v42.55h-4.727V.006h-4.728V56.738Z"/>
        <path d="M545.829,19.868V42.556h4.727V.006h-4.727Z"/>
        <path d="M597.834,56.366V42.556H583.652V70.544h4.727V56.366h4.728V70.544h4.727V56.366Z"/>
        <rect x="574.197" y="56.366" width="4.727" height="14.178"/>
        <path d="M583.588,37.072V.006H569.754v42.55H583.6V37.08Z" fill="#f605f6"/>
        <path d="M597.834,70.544H585.845L626.2,120.632V86.864L612.02,70.544Z" fill="#f605f6"/>
      </g>
      <g>
        <path d="M755.68,106.717c0-.008-.012-.016-.016-.024.04.06.08.116.12.176C755.748,106.817,755.716,106.765,755.68,106.717Z" fill="#8052c1"/>
        <path d="M755.9,107.045l.008.012S755.908,107.049,755.9,107.045Z" fill="#8052c1"/>
        <path d="M788.412,58.4l8.79-13.253q-4.395,6.628-8.79,13.253Z" fill="#21119c"/>
        <path d="M761.624,64.807v-8.07H747.442V70.919h14.182V81.05a27,27,0,0,1,9.207,3.859l8.79-13.253a43.244,43.244,0,0,0-18-6.849Z" fill="#00f8f5"/>
        <polygon points="732.924 70.911 732.912 70.919 733.256 70.919 733.256 70.911 732.924 70.911" fill="#00f8f5"/>
        <path d="M755.952,107.113l-8.514-12.4q4.191,6.119,8.394,12.233c.04.056.08.116.12.172Z" fill="#00f8f5"/>
        <path d="M721.379,56.737h11.877V42.555H719.074V56.737Z" fill="#00f8f5"/>
        <path d="M779.617,71.656q4.4-6.624,8.791-13.254h0Z" fill="#10f413"/>
        <polygon points="755.972 107.141 755.952 107.113 755.972 107.145 755.972 107.141" fill="#10f413"/>
        <path d="M755.984,107.161l.04.06A.521.521,0,0,0,755.984,107.161Z" fill="#10f413"/>
        <polygon points="755.984 107.157 755.984 107.161 755.972 107.145 755.984 107.157" fill="#10f413"/>
        <path d="M755.984,107.161a.055.055,0,0,1,.012.016A.055.055,0,0,0,755.984,107.161Z" fill="#10f413"/>
        <path d="M755.952,107.113a.334.334,0,0,1-.032-.048l.048.068Z" fill="#10f413"/>
        <path d="M755.972,107.141l.012.016a.055.055,0,0,1-.012-.016Z" fill="#10f413"/>
        <path d="M702.386,28.917H690.705v27.82h14.182V28.368a28.438,28.438,0,0,0,5.26,0c1.73-.352,3.659-1.885,5.284-2.677q3.555-1.723,7.249-3.131A91.249,91.249,0,0,1,805.992,31.9l8.791-13.254c-35.934-23.633-83.34-24.009-119.254-.016l6.949,10.288Z" fill="#10f413"/>
        <path d="M799.307,27.832a92.023,92.023,0,0,0-88.98.536h22.929v7.454A75.923,75.923,0,0,1,797.2,45.153l8.79-13.254c-2.177-1.437-4.4-2.806-6.685-4.067Z" fill="#0500fe"/>
        <path d="M755.68,106.717l-.056-.08C755.64,106.661,755.66,106.689,755.68,106.717Z" fill="#0500fe"/>
        <path d="M733.256,56.737h14.182V42.555H733.256V56.737Z" fill="#0500fe"/>
        <path d="M719.074,43.1v0Z" fill="#0500fe"/>
        <path d="M779.293,71.443l.324.213L788.408,58.4a59.708,59.708,0,0,0-26.788-9.627v-6.22H747.438V56.737H761.62v8.07a42.824,42.824,0,0,1,17.673,6.636Z" fill="#f605f6"/>
        <path d="M731.11,70.919c.717,0,1.433,0,2.146-.008V56.737H719.074V70.911c4.007,0,8.037-.052,12.036.008Z" fill="#f605f6"/>
        <path d="M755.9,107.033l-.024-.036c.012.016.024.036.036.052Z" fill="#f9f40a"/>
        <path d="M755.844,106.957l0,0c.016.028.036.052.052.076Z" fill="#f9f40a"/>
        <path d="M755.776,106.861c-.148-.216-.3-.428-.44-.644.156.228.312.452.468.68Z" fill="#f9f40a"/>
        <path d="M755.776,106.861c.1.152.04.056-.088-.124A1.383,1.383,0,0,1,755.776,106.861Z" fill="#f9f40a"/>
        <path d="M770.827,84.909q4.395-6.623,8.79-13.253-4.395,6.622-8.79,13.253Z" fill="#f9f40a"/>
        <path d="M755.992,107.173l.032.048A.334.334,0,0,0,755.992,107.173Z" fill="#f9f40a"/>
        <polygon points="755.996 107.173 756 107.185 755.984 107.161 755.996 107.173" fill="#f9f40a"/>
        <polygon points="755.992 107.173 755.996 107.173 755.984 107.161 755.992 107.173" fill="#f9f40a"/>
        <path d="M756,107.173l.032.048A.334.334,0,0,1,756,107.173Z" fill="#f9f40a"/>
        <path d="M704.887,113.47v-9.455h0Z" fill="#fff"/>
        <path d="M690.705,57.285V70.919h14.182v29.313h0V85.1H719.07V70.919H704.887V56.737H690.705Z" fill="#fff"/>
        <path d="M676.523,70.919V99.288h-3.546V85.105H669.43V99.288h-3.547V85.105h-3.546V113.47h17.729V85.1h3.546V113.47h3.547V85.1h3.546V70.919H676.523V57.285H662.341V70.919Z" fill="#fff"/>
        <path d="M690.705,100.468v13.006h3.547V85.105h-3.547v15.363Z" fill="#fff"/>
        <path d="M701.341,113.47V85.1h-3.547V113.47Z" fill="#fff"/>
        <path d="M722.616,42.555V28.372H719.07V42.555Z" fill="#fff"/>
        <rect x="726.163" y="28.368" width="3.547" height="14.182" fill="#fff"/>
        <rect x="704.887" y="28.368" width="3.547" height="14.182" fill="#fff"/>
        <path d="M711.981,28.917V42.551h3.546V28.368h-3.546Z" fill="#fff"/>
        <polygon points="655.248 99.276 655.248 99.288 658.794 99.288 658.794 85.105 655.248 85.105 655.248 99.276" fill="#fff"/>
        <path d="M747.438,113.47v-9.455H733.256v9.455Z" fill="#fff"/>
        <path d="M740.889,85.105h-36v15.131h14.182v3.783H704.891v9.455h14.183v-9.455h14.182v-3.783H719.078V85.105H733.26v15.131h14.182V85.105Z" fill="#fff"/>
        <path d="M733.256,35.822v6.733h28.368v6.22A60,60,0,0,1,788.412,58.4l8.79-13.253a75.936,75.936,0,0,0-63.946-9.327Z" fill="#f70302"/>
        <path d="M755.284,106.14l.052.08a.7.7,0,0,0-.052-.08Z"/>
        <path d="M755.964,107.133l0,.008,0-.008Z"/>
        <path d="M755.84,106.949l.032.044A.419.419,0,0,1,755.84,106.949Z"/>
        <path d="M755.82,106.921c.008.008.012.02.02.028a.169.169,0,0,1-.02-.028Z"/>
        <polygon points="755.928 107.077 755.948 107.109 755.92 107.065 755.928 107.077"/>
        <path d="M754.071,104.375c.372.545.748,1.089,1.121,1.633-.373-.544-.745-1.088-1.121-1.633Z"/>
        <path d="M755.832,106.941l.008.012Z"/>
        <path d="M755.324,106.2l-.192-.281c.064.092.128.188.192.281Z"/>
        <path d="M755.972,107.141v0Z"/>
        <polygon points="755.956 107.121 755.964 107.133 755.948 107.109 755.956 107.121"/>
        <path d="M755.984,107.161l-.012-.016.052.076C756.012,107.2,756,107.181,755.984,107.161Z"/>
        <polygon points="755.972 107.141 755.972 107.141 755.968 107.133 755.972 107.141"/>
        <path d="M755.968,107.133l-.048-.068.052.076Z"/>
        <polygon points="755.984 107.157 755.972 107.141 755.984 107.161 755.984 107.157"/>
        <path d="M755.584,106.577l.08.116-.08-.116Z"/>
        <polygon points="755.844 106.953 755.84 106.949 755.844 106.957 755.844 106.953"/>
        <path d="M755.192,106.008l.392.569C755.452,106.389,755.324,106.2,755.192,106.008Z"/>
        <path d="M755.784,106.865l.04.056a.284.284,0,0,1-.04-.056Z"/>
        <path d="M755.336,106.217c-.02-.033-.044-.065-.064-.093.116.173.232.341.352.513Z"/>
        <path d="M755.132,105.92l-1.061-1.545c.4.585.8,1.165,1.2,1.749Z"/>
        <path d="M755.832,106.941l-.028-.044Z"/>
        <path d="M755.284,106.136l-.148-.216c.048.072.1.144.148.216Z"/>
        <path d="M722.616,42.555h3.547V28.372h-3.547V42.555Z"/>
        <path d="M729.709,42.555h3.547V28.372h-3.547V42.555Z"/>
        <path d="M770.623,84.773a26.776,26.776,0,0,0-9-3.723V70.919H747.438V56.737H733.256V85.105h14.182v0c0,3.683-1.041,8.09,1.093,11.2q3.747,5.458,7.493,10.92l14.8-22.312Z" fill="#f9f40a"/>
        <path d="M704.887,70.919H719.07V56.737H704.887Z" fill="#f70302"/>
        <path d="M747.438,113.47H733.256v-9.455h14.182ZM704.887,107.8v5.672h0v-9.455h0Zm-3.546-22.685v28.361h-3.547V85.105h3.547Zm-7.089,0v28.361h-3.547V85.105h-3.546v28.369h-3.547V85.105h-3.546v28.369H662.337V99.292h0V85.109h3.546V99.291h3.547V85.109h3.547V99.291h3.546V70.923H662.341V57.289h14.182V70.923h14.182V85.105h3.547ZM658.794,99.288h-3.546V85.105h3.546Zm97.23,7.933c-2.866-4.171-5.9-8.278-8.586-12.549v5.56H733.256V70.919q-7.084,0-14.182-.008v29.321h14.178v3.783H719.07v9.455H704.887v-9.455H719.07v-3.783H704.887q.018-14.656,0-29.313H690.705v-42h11.773q-3.477-5.153-6.957-10.3a1.538,1.538,0,0,1-.2.145v0c-38.708,26.318-55.176,78.3-40.145,122.259,12.7,37.155,46.045,64.927,84.9,70.607a107.073,107.073,0,0,0,74.509-16.716Z"/>
        <path d="M719.074,56.737h0V43.1h0V28.372h-3.547V42.555h-3.546V28.372h-3.547V42.555h-3.547V56.737Z"/>
        <path d="M704.892,100.224v0Z" fill="#fff"/>
        <polygon points="704.887 100.232 704.887 100.232 704.892 100.232 704.887 100.232" fill="#fff"/>
      </g>
      <g>
        <path d="M866.814,14.186,864.368,7.1H850.186c4.728,13.71,9.455,27.764,14.182,41.478h14.183c-3.887-11.36-7.826-23.041-11.737-34.389Z" fill="#00f8f5"/>
        <path d="M906.919,99.059V87.607H892.737V48.567H878.551V75.642h-4.728q9.458,27.423,18.91,54.844h14.182l-10.84-31.431h10.844Z" fill="#00f8f5"/>
        <polygon points="892.733 7.093 893.089 8.126 893.089 7.093 892.733 7.093" fill="#10f413"/>
        <path d="M909.709,28.368H900.07q2.665,7.74,5.336,15.476h14.182l-5.336-15.476Z" fill="#10f413"/>
        <path d="M935.283,89.36V75.646H921.1V87.607h14.182V99.059H924.448l10.84,31.431H949.47L935.283,89.36Z" fill="#10f413"/>
        <path d="M878.551,48.571V43.844h12.673L878.551,7.1H864.368c4.728,13.706,9.455,27.764,14.183,41.474Z" fill="#0500fe"/>
        <path d="M892.853,48.571h-.116v39.04h14.182V99.063H896.083l10.84,31.431h14.182l-10.84-31.431H921.1V87.611H906.919V48.571Z" fill="#0500fe"/>
        <path d="M850.182,0Z" fill="#f9f40a"/>
        <path d="M850.182,7.093h0Z" fill="#f9f40a"/>
        <path d="M906.387,0V28.372h3.322V0h3.322V28.372h3.327V0h3.322V7.093H921.1V0h-14.71Z" fill="#fff"/>
        <path d="M878.551,7.093h14.538L893.273,0H878.551V7.093Z" fill="#fff"/>
        <rect x="850.186" y="0.004" width="7.093" height="7.093" fill="#fff"/>
        <path d="M843.093,0H836V7.093h7.093Z" fill="#fff"/>
        <path d="M931.737,75.647V48.571H928.19V75.647Z" fill="#fff"/>
        <path d="M921.1,75.647h3.543V48.571H921.1Z" fill="#fff"/>
        <path d="M900.07,28.368h2.99V0h-3.322V28.368Z" fill="#fff"/>
        <path d="M893.089,8.126V28.368h3.322V0h-3.322Z" fill="#fff"/>
        <path d="M963.652,48.571V43.844H935.283v4.727Z" fill="#fff"/>
        <polygon points="905.406 43.844 878.551 43.844 878.551 48.571 906.919 48.571 906.919 43.844 905.406 43.844" fill="#fff"/>
        <path d="M897.416,43.844h7.994q-2.665-7.74-5.336-15.476h-6.981V7.1H878.555l12.673,36.747Z" fill="#f70302"/>
        <path d="M920.5,87.611h.6V99.063H910.261l10.84,31.431h14.182L924.444,99.063h10.835V87.611H921.1V48.575H906.915v39.04H920.5Z" fill="#f70302"/>
        <path d="M921.1,130.49h-42.55v82.267H949.47V130.49Z"/>
        <path d="M864.368,7.093h14.183V0H857.275V7.093Z"/>
        <polygon points="935.283 0 935.283 0 921.101 0 921.101 7.093 935.283 0"/>
        <path d="M916.358,0V28.372h-2.106l5.336,15.476H906.915v4.727h17.729V75.65h3.546V48.575h3.547V75.65h3.546v-31.8h28.369v4.727H935.283V89.364L949.466,130.5q7.864-22.81,15.731-45.621,11.673-33.852,23.349-67.7c1-2.9,2.153-5.792,3.014-8.738.8-2.734.46-5.56.46-8.422C983.746,0,916.358,0,916.358,0Z"/>
        <path d="M843.093,7.093h7.093V0h-7.093Z"/>
        <path d="M913.035,24.834V0h-3.322V28.368h3.322Z"/>
        <path d="M893.089,0h3.322V28.372h3.327V0h3.322V28.372h3.323V0H893.089Z"/>
        <path d="M873.823,75.647h4.728V48.571H864.368c-4.727-13.71-9.454-27.764-14.182-41.478H836q18.721,54.285,37.439,108.57,2.558,7.416,5.112,14.827h14.182q-9.457-27.422-18.914-54.844Z" fill="#f605f6"/>
      </g>
      <g>
        <path d="M109.923,536.351H85.1v8.038H113.47v-8.038Z" fill="#00f8f5"/>
        <path d="M155.832,565.664H170.2L85.1,360v38.932Z" fill="#10f413"/>
        <polygon points="85.101 437.864 139.404 565.664 155.832 565.664 85.101 398.932 85.101 437.864" fill="#0500fe"/>
        <path d="M92.19,507.983h6.2L85.1,476.792v31.191Z" fill="#f605f6"/>
        <polygon points="113.466 544.389 113.47 544.389 113.47 564.952 113.466 564.952 113.466 565.664 122.977 565.664 113.466 543.348 113.466 544.389" fill="#f605f6"/>
        <path d="M70.919,544.389v7.565H85.1v-7.561q-7.091-.006-14.182,0Z" fill="#f9f40a"/>
        <path d="M99.287,548.748v9.823H113.47V544.385H99.287Z" fill="#f9f40a"/>
        <path d="M53.186,564.952v-6.381h3.547v-27.9H42.551V565.66h-8.51v7.093H46.1V558.571h3.547v14.182H53.19q-.006-3.9,0-7.8Z" fill="#fff"/>
        <path d="M70.919,544.389H85.1v-8.038h3.547V507.983H85.1v22.692H70.919v13.714Z" fill="#fff"/>
        <path d="M70.919,526.108V489.545H56.737v41.134H70.919Z" fill="#fff"/>
        <path d="M109.923,565.664v-7.093h-3.546v7.093H102.83v7.093h10.2v-7.093Z" fill="#fff"/>
        <path d="M124.814,572.753h5.051V565.66h-8.422v7.093Z" fill="#fff"/>
        <rect y="565.664" width="8.51" height="7.093" fill="#fff"/>
        <rect x="17.02" y="565.664" width="8.51" height="7.093" fill="#fff"/>
        <rect x="155.832" y="565.664" width="3.731" height="7.093" fill="#fff"/>
        <path d="M164.526,565.664h-1.417v7.093h3.547v-7.093Z" fill="#fff"/>
        <rect x="139.404" y="565.664" width="5.976" height="7.093" fill="#fff"/>
        <rect x="148.927" y="565.664" width="3.547" height="7.093" fill="#fff"/>
        <path d="M99.283,558.571v7.093h3.547v-7.093Z" fill="#fff"/>
        <path d="M95.737,565.664v-7.093H92.19v7.093H88.644v-7.093H85.1v2.522H70.915v4.571h0v7.093h8.422v-7.093h9.307v7.093h7.093Z" fill="#fff"/>
        <path d="M99.283,510.821v25.53h3.547V507.983H99.283v2.838Z" fill="#fff"/>
        <path d="M106.377,530.675v5.672h3.546V507.979h-3.546v22.7Z" fill="#fff"/>
        <path d="M92.19,516.965v19.386h3.547V507.983H92.19v8.982Z" fill="#fff"/>
        <path d="M60.279,564.952v-6.381H56.733v14.182h3.546Z" fill="#fff"/>
        <path d="M67.373,564.952v-6.381H63.826v14.182h3.546v-7.8Z" fill="#fff"/>
        <path d="M85.1,476.8,98.4,507.987H113.47v35.365l9.511,22.312h16.427L85.1,437.864Z" fill="#f70302"/>
        <path d="M70.919,561.093H85.1v-9.139H70.919V530.679H56.737v13.71h0v14.186h3.546v14.182H63.83V558.575h3.547v14.182h3.546q-.006-5.837,0-11.664Z"/>
        <path d="M106.377,565.664v-7.093H102.83v7.093H99.283v-7.093h0V544.389H85.1v14.182h3.543v7.093H92.19v-7.093h3.547v7.093h0v7.093h7.093v-7.093Z"/>
        <rect x="129.865" y="565.664" width="9.539" height="7.093"/>
        <rect x="79.341" y="565.664" width="9.307" height="7.089"/>
        <path d="M8.51,572.753h8.51V565.66h8.51v7.093h8.511V565.66h8.51v-7.093h0V530.675H56.733V489.541H70.915v41.134H85.1V360L0,565.664H8.51Z"/>
        <rect x="159.563" y="565.664" width="3.547" height="7.093"/>
        <rect x="152.474" y="565.664" width="3.362" height="7.093"/>
        <path d="M166.656,572.753H170.2V565.66h-3.546Z"/>
        <rect x="145.381" y="565.664" width="3.547" height="7.093"/>
        <path d="M113.466,558.571h-3.547v7.093h3.1v7.093h8.422v-7.093h-7.977v-7.093Z"/>
        <path d="M102.83,530.675v5.672h3.547V507.979H102.83Z"/>
        <path d="M95.737,510.821v25.53h3.546V507.983H95.737Z"/>
        <path d="M109.923,535.03v1.321h3.547V507.983h-3.547V535.03Z"/>
        <path d="M92.19,532.236V507.987H88.644v28.368H92.19Z"/>
        <path d="M56.733,564.952v-6.381H53.186v14.182h3.547v-7.8Z"/>
        <path d="M49.644,564.952v-6.381H46.1v14.182h3.547Z"/>
      </g>
      <g>
        <polygon points="171.555 494.773 171.555 482.352 168.008 482.352 168.008 494.773 168.008 496.534 168.164 496.534 171.555 496.534 171.555 494.773"/>
        <polygon points="171.555 496.534 178.648 496.534 178.648 494.769 178.648 482.352 171.555 482.352 171.555 494.773 171.555 496.534" fill="#fff"/>
        <polygon points="178.648 496.534 181.081 496.534 185.741 496.534 185.741 494.769 185.741 494.761 185.741 482.352 178.648 482.352 178.648 494.769 178.648 496.534"/>
        <polygon points="306.3 430.919 306.3 439.801 315.406 439.801 315.406 430.919 315.406 430.907 306.3 430.907 306.3 430.919"/>
        <path d="M221.2,496.534h0Z" fill="#00f8f5"/>
        <path d="M249.563,519.807v0Z" fill="#00f8f5"/>
        <path d="M248.058,559.572l-.012.04c-.265,0-.529-.02-.793-.02s-.524.02-.789.02l-.016-.04c-34.368-.833-63.089-28.577-65.367-63.038H168.164c2.554,41.61,37.179,75.166,78.633,76.171l.02.048c.32,0,.632-.02.948-.024s.633.024.953.024l.016-.048a74.144,74.144,0,0,0,49.828-20.663l-10.592-8.17a61.78,61.78,0,0,1-39.912,15.7Z" fill="#10f413"/>
        <path d="M241.709,372.933l.012-.036c.244,0,.484.016.729.016s.484-.02.728-.02l.016.036c32.187.757,59.055,26.4,60.324,57.962l1.28.012h10.608v-1.157c-1.525-37.947-33.832-68.793-72.54-69.7L242.85,360c-.292,0-.581.02-.873.02s-.58-.02-.876-.02l-.012.044a69.761,69.761,0,0,0-39.873,13.478l10.776,8.3a58.231,58.231,0,0,1,29.717-8.887Z" fill="#10f413"/>
        <rect x="249.563" y="482.352" width="14.186" height="7.093" fill="#10f413"/>
        <path d="M247.369,546.47c-.212,0-.42-.016-.632-.016s-.417.016-.629.016l-.012-.032c-27.287-.66-50.1-22.592-52.1-49.9H181.081c2.278,34.461,31,62.205,65.367,63.038l.016.04c.265,0,.525-.02.789-.02s.524.02.793.02l.012-.04a61.771,61.771,0,0,0,39.912-15.7l-10.763-8.3a49.265,49.265,0,0,1-29.826,10.872Z" fill="#0500fe"/>
        <path d="M242.342,384.646c.2,0,.388.016.58.016s.384-.016.58-.016l.012.028c25.635.6,47.03,21,48.1,46.117a1.064,1.064,0,0,0,.012.112h11.893V430.9c-1.273-31.555-28.137-57.2-60.324-57.962l-.016-.036c-.244,0-.484.02-.728.02s-.485-.016-.729-.016l-.012.036a58.234,58.234,0,0,0-29.721,8.891l10.251,7.9a46.8,46.8,0,0,1,20.094-5.047Z" fill="#0500fe"/>
        <polygon points="226.606 496.538 221.198 496.538 221.198 502.515 221.198 523.91 221.198 524.903 222.459 524.903 235.381 524.903 235.381 517.866 235.381 503.303 235.381 502.102 235.381 496.538 232.839 496.538 226.606 496.538" fill="#0500fe"/>
        <rect x="221.198" y="482.352" width="14.182" height="7.093" fill="#0500fe"/>
        <path d="M246.008,402.935l0-.016c-.1,0-.2.008-.3.008s-.2-.008-.3-.008l0,.016c-.565.012-1.113.068-1.665.116v22.56h5.828v-14.17h15.247a26.185,26.185,0,0,0-18.806-8.506Z" fill="#f9f40a"/>
        <polygon points="249.563 482.352 249.563 482.352 249.563 494.713 249.563 494.725 249.563 494.733 249.563 494.741 249.563 494.749 249.563 494.757 249.563 496.534 256.74 496.534 263.749 496.534 263.749 494.757 263.749 494.745 263.749 494.737 263.749 494.729 263.749 494.721 263.749 489.445 249.563 489.445 249.563 482.352" fill="#fff"/>
        <polygon points="221.198 496.534 221.198 496.534 226.606 496.534 232.839 496.534 235.381 496.534 235.381 494.761 235.381 494.753 235.381 494.745 235.381 494.733 235.381 494.725 235.381 494.717 235.381 489.445 221.198 489.445 221.198 482.352 214.105 482.352 214.105 486.891 214.105 494.737 214.105 494.745 214.105 494.757 214.105 494.765 214.105 496.534 219.833 496.534 221.198 496.534" fill="#fff"/>
        <polygon points="185.741 494.769 185.741 496.534 192.83 496.534 192.83 494.769 192.83 494.761 192.83 482.352 185.741 482.352 185.741 494.761 185.741 494.769" fill="#fff"/>
        <polygon points="199.923 494.757 199.923 494.765 199.923 496.534 206.916 496.534 207.012 496.534 207.012 494.765 207.012 494.757 207.012 494.749 207.012 494.741 207.012 482.352 199.923 482.352 199.923 494.749 199.923 494.757" fill="#fff"/>
        <polygon points="214.105 524.903 217.652 524.903 217.652 520.516 217.652 496.534 214.105 496.534 214.105 516.217 214.105 524.903" fill="#fff"/>
        <polygon points="210.563 524.903 210.563 510.124 210.563 496.534 207.016 496.534 207.016 497.655 207.016 524.903 210.563 524.903" fill="#fff"/>
        <polygon points="256.656 411.969 256.656 416.233 256.656 425.607 256.656 430.487 256.656 430.907 256.656 430.911 256.656 430.915 256.656 439.801 260.202 439.801 260.202 430.915 260.202 430.911 260.202 430.907 260.202 430.519 260.202 425.607 260.202 418.962 260.202 414.691 260.202 411.433 256.656 411.433 256.656 411.969" fill="#fff"/>
        <polygon points="249.563 411.433 249.563 420.115 249.563 425.607 249.563 429.798 249.563 430.427 249.563 430.911 249.563 430.915 249.563 439.801 253.109 439.801 253.109 430.915 253.109 430.911 253.109 430.459 253.109 429.798 253.109 425.607 253.109 422.885 253.109 413.502 253.109 411.433 250.427 411.433 249.563 411.433" fill="#fff"/>
        <polygon points="277.083 430.907 275.706 430.907 274.385 430.907 274.385 430.643 274.385 429.886 274.385 413.843 274.385 411.433 272.755 411.433 270.838 411.433 270.838 427.156 270.838 430.611 270.838 430.907 267.84 430.907 267.295 430.907 267.295 430.579 267.295 426.876 267.295 425.603 267.295 424.426 267.295 414.703 267.295 411.433 264.814 411.433 263.749 411.433 263.749 418.786 263.749 421.696 263.749 425.607 263.749 430.551 263.749 430.907 263.749 430.911 263.749 430.915 263.749 439.801 267.295 439.801 270.838 439.801 274.384 439.801 277.931 439.801 277.931 432.62 277.931 430.907 277.083 430.907" fill="#fff"/>
        <polygon points="306.3 430.907 304.798 430.907 292.113 430.907 292.113 439.801 306.3 439.801 306.3 430.919 306.3 430.907" fill="#fff"/>
        <path d="M246.7,533.333c-.156,0-.313-.012-.473-.012s-.312.012-.468.012l-.008-.024a39.552,39.552,0,0,1-23.289-8.406H207.012V497.655c-.044-.372-.068-.748-.1-1.121H194c2,27.312,24.81,49.244,52.1,49.9l.012.032c.212,0,.42-.016.629-.016s.42.016.632.016l.012-.032A49.265,49.265,0,0,0,277.2,535.566l-10.916-8.418A36.811,36.811,0,0,1,246.7,533.3Z" fill="#f70302"/>
        <path d="M291.625,430.9a1.064,1.064,0,0,0-.012-.112c-1.073-25.118-22.468-45.513-48.1-46.117l-.012-.028c-.2,0-.384.016-.58.016s-.384-.016-.58-.016l-.009.028a46.74,46.74,0,0,0-20.094,5.047l10.832,8.346a35.552,35.552,0,0,1,9.883-1.653l.008-.02c.144,0,.288.012.432.012s.288-.012.433-.012l.008.02a37.232,37.232,0,0,1,28.92,15.023h5.176V421.3a34.274,34.274,0,0,1,1.781,9.395c0,.072.016.144.02.216h8.963l2.934,0Z" fill="#f70302"/>
        <polygon points="235.381 503.303 235.381 517.866 235.381 524.903 249.563 524.903 249.563 519.807 249.563 514.247 249.563 506.133 249.563 496.538 235.381 496.538 235.381 502.102 235.381 503.303" fill="#f70302"/>
        <polygon points="235.381 489.445 235.381 489.445 249.563 489.445 249.563 482.352 235.381 482.352 235.381 489.445" fill="#f70302"/>
        <polygon points="226.606 496.534 221.198 496.534 221.198 496.538 226.606 496.538 232.839 496.538 235.381 496.538 235.381 496.534 232.839 496.534 226.606 496.534" fill="#f70302"/>
        <path d="M263.749,482.352V496.53H249.567V482.352Zm32.1-35.93-8.6-6.621h4.859v-8.9H277.931v8.89H263.745v-28.36H260.2V439.8h-3.546V411.433h-3.543V439.8h-3.546v-14.19h-5.829V402.554H238.9l-5.824-4.487-10.832-8.346-10.251-7.9-10.776-8.3-.132-.105-1.822,1.614-5.764,5.107-.544.481c-.068.068-.124.144-.192.212-.337.336-.625.708-.953,1.053-13.342,13.914-20.511,32.731-18.842,49.98,1.57,16.219,10.268,31.206,24.482,42.174l10.772,8.31h-1.205v14.182h7.093V482.352h35.458v7.089H235.38v7.089h14.183v28.364h13.814l2.914,2.246,10.915,8.418,10.764,8.3,10.592,8.17.04.032,3.807-3.783c31.19-30.97,28.308-75.73-6.557-101.857Z"/>
        <polygon points="192.83 494.769 192.83 496.534 193.999 496.534 199.923 496.534 199.923 494.765 199.923 494.757 199.923 494.749 199.923 482.352 192.83 482.352 192.83 494.761 192.83 494.769"/>
        <polygon points="217.652 524.903 221.198 524.903 221.198 523.91 221.198 502.515 221.198 496.538 221.198 496.534 219.833 496.534 217.652 496.534 217.652 520.516 217.652 524.903"/>
        <polygon points="210.563 524.903 214.105 524.903 214.105 516.217 214.105 496.534 210.563 496.534 210.563 510.124 210.563 524.903"/>
        <polygon points="274.385 429.886 274.385 430.643 274.385 430.907 275.706 430.907 277.083 430.907 277.931 430.907 277.931 430.903 277.931 430.671 277.931 421.292 277.931 411.433 274.385 411.433 274.385 413.843 274.385 429.886"/>
        <polygon points="267.295 414.703 267.295 424.426 267.295 425.603 267.295 426.876 267.295 430.579 267.295 430.907 267.84 430.907 270.838 430.907 270.838 430.611 270.838 427.156 270.838 411.433 267.295 411.433 267.295 414.703"/>
        <path d="M249.563,524.9v0H222.455a39.552,39.552,0,0,0,23.289,8.406l.008.024c.156,0,.312-.012.468-.012s.313.012.473.012l.008-.024a36.88,36.88,0,0,0,19.586-6.157l-2.914-2.245h-13.81Z" fill="#f605f6"/>
        <path d="M207.012,496.534h-.1c.032.377.056.749.1,1.121v-1.121h0Z" fill="#f605f6"/>
        <path d="M243.835,396.414l-.008-.02c-.145,0-.289.012-.433.012s-.288-.012-.432-.012l-.008.02a35.406,35.406,0,0,0-9.883,1.653l5.824,4.488h4.84v.5c.552-.048,1.1-.1,1.665-.116l0-.016c.1,0,.2.008.3.008s.2-.008.3-.008l0,.016a26.2,26.2,0,0,1,18.806,8.5h7.941a37.218,37.218,0,0,0-28.916-15.023Z" fill="#f605f6"/>
        <path d="M277.931,421.292V430.9h1.8c0-.072-.016-.144-.02-.216a34.309,34.309,0,0,0-1.781-9.4Z" fill="#f605f6"/>
      </g>
      <g>
        <rect x="452.88" y="508.928" width="14.182" height="7.093" fill="#fbfcac"/>
        <rect x="467.062" y="508.928" width="14.182" height="7.093" fill="#f7fa59"/>
        <path d="M495.43,516.021h14.182v-7.093H495.43Z" fill="#a2a504"/>
        <path d="M509.612,516.021v0Z" fill="#a2a504"/>
        <path d="M509.612,516.021h14.183v-7.093H509.612Z" fill="#515202"/>
        <rect x="467.062" y="501.839" width="14.182" height="7.089" fill="#fcacfc"/>
        <polygon points="467.062 501.839 467.062 501.839 481.244 501.839 467.062 501.839" fill="#fcacfc"/>
        <path d="M495.43,501.839H481.248v7.089H495.43Z" fill="#f958f9"/>
        <polygon points="481.244 501.839 481.244 501.839 495.426 501.839 481.244 501.839" fill="#f958f9"/>
        <path d="M509.612,501.839v7.089h14.183v-7.093Z" fill="#a403a4"/>
        <path d="M523.795,501.839v7.089h14.182v-7.093Q530.885,501.841,523.795,501.839Z" fill="#520252"/>
        <rect x="452.88" y="516.021" width="14.182" height="28.368" fill="#55faf8"/>
        <rect x="481.244" y="516.021" width="14.182" height="28.368" fill="#00a5a3"/>
        <path d="M481.244,445.1h14.182V430.92H481.244Z" fill="#00a5a3"/>
        <rect x="438.693" y="516.021" width="14.182" height="28.368" fill="#aafdfc"/>
        <path d="M452.88,430.92H438.7V445.1H452.88Z" fill="#aafdfc"/>
        <path d="M500.158,516.021H495.43v28.368h14.182V516.021Z" fill="#005352"/>
        <path d="M495.43,445.1h14.182V430.92H495.43Z" fill="#005352"/>
        <rect x="452.88" y="544.385" width="14.182" height="7.093" fill="#affbb0"/>
        <rect x="438.693" y="360.005" width="14.182" height="14.182" fill="#affbb0"/>
        <rect x="467.062" y="544.385" width="14.182" height="7.093" fill="#60f862"/>
        <rect x="452.88" y="360.005" width="14.182" height="14.182" fill="#60f862"/>
        <path d="M500.158,544.385H495.43v7.093h14.182v-7.093Z" fill="#0ba30d"/>
        <rect x="481.244" y="360.005" width="14.182" height="14.182" fill="#0ba30d"/>
        <path d="M523.795,551.478v-7.093H509.612v7.093Z" fill="#055106"/>
        <path d="M500.158,374.187h9.454V360.005H495.43v14.182Z" fill="#055106"/>
        <path d="M509.612,494.746Z" fill="#00f8f5"/>
        <path d="M509.612,551.478v7.094h14.183v-7.094Z" fill="#00f8f5"/>
        <path d="M509.612,459.288h28.365V473.47H509.612v14.182h28.369V466.377h14.182v21.275h0V466.377h14.182v-7.093q-28.363.006-56.733,0Z" fill="#00f8f5"/>
        <rect x="467.062" y="516.021" width="14.182" height="28.368" fill="#00f8f5"/>
        <polygon points="467.062 430.92 452.88 430.92 452.88 445.102 467.062 445.102 481.244 445.102 481.244 430.92 467.062 430.92" fill="#00f8f5"/>
        <path d="M481.244,572.754V558.572h14.182V544.389H481.244v28.365h0Z" fill="#10f413"/>
        <path d="M495.43,494.746h0Z" fill="#10f413"/>
        <path d="M495.43,487.652V473.47h14.182V459.288H495.43V473.47H481.248v14.182Z" fill="#10f413"/>
        <rect x="537.977" y="445.102" width="28.368" height="14.182" fill="#10f413"/>
        <path d="M523.795,487.652H509.612v7.094h14.183Z" fill="#10f413"/>
        <rect x="467.062" y="360.005" width="14.182" height="14.182" fill="#10f413"/>
        <path d="M481.244,494.746H467.062v-7.094h14.182V459.288H467.062v35.458Z" fill="#0500fe"/>
        <path d="M580.527,430.92h-42.55V445.1h28.368V430.92q14.182,0,28.369,0Z" fill="#0500fe"/>
        <rect x="467.062" y="551.478" width="14.182" height="21.275" fill="#0500fe"/>
        <path d="M495.43,487.652H481.248v7.094H495.43Z" fill="#0500fe"/>
        <path d="M509.612,473.47h14.183V459.288H509.612Z" fill="#f9f40a"/>
        <path d="M537.981,487.652H523.8v7.094h14.182Z" fill="#f9f40a"/>
        <path d="M523.795,459.288V445.106H509.612v14.182Z" fill="#fff"/>
        <path d="M481.244,459.288V452.2h14.182V445.1H481.244V452.2H467.062v7.093Z" fill="#fff"/>
        <path d="M552.163,487.652V466.377H537.981v21.275Z" fill="#fff"/>
        <path d="M509.612,501.839h14.183v-7.093H509.612Z" fill="#fff"/>
        <rect x="481.244" y="494.746" width="14.182" height="7.093" fill="#fff"/>
        <path d="M452.88,459.288V452.2h14.182V445.1H452.88V452.2H438.7v7.093Z" fill="#fff"/>
        <rect x="467.062" y="416.737" width="14.182" height="14.182" fill="#fff"/>
        <path d="M467.062,501.839h-3.547V487.656h-3.546v14.183h-3.547V487.656h-3.546v21.276h14.182v-7.093Z" fill="#fff"/>
        <rect x="438.693" y="487.652" width="3.547" height="14.182" fill="#fff"/>
        <rect x="445.786" y="487.652" width="3.547" height="14.182" fill="#fff"/>
        <path d="M513.159,430.92V402.551h-3.547V430.92Z" fill="#fff"/>
        <path d="M520.248,430.92V402.551H516.7V430.92Z" fill="#fff"/>
        <path d="M495.43,430.92h3.547V402.551H495.43Z" fill="#fff"/>
        <path d="M506.066,430.92V402.551h-3.547V430.92Z" fill="#fff"/>
        <path d="M495.43,473.47v21.276h14.182V473.47Z" fill="#f70302"/>
        <rect x="495.43" y="551.478" width="14.182" height="7.093" fill="#f70302"/>
        <path d="M509.612,459.288Z" fill="#f70302"/>
        <path d="M495.426,459.288H481.244V473.47h14.182Z" fill="#f70302"/>
        <path d="M542.708,416.737h-4.727V430.92h56.733V416.737Z" fill="#f70302"/>
        <path d="M495.43,445.1V452.2H481.248v7.093h28.364V445.106Q502.521,445.1,495.43,445.1Z"/>
        <path d="M467.062,452.2h14.182V445.1H467.062V452.2H452.88v7.093h14.182Z"/>
        <path d="M537.981,487.652v7.094h14.182v-7.094Z"/>
        <path d="M552.163,473.47v14.182h14.182V466.377H552.163Z"/>
        <path d="M523.795,494.746v7.093h14.182v-7.093Z"/>
        <rect x="495.43" y="494.746" width="14.182" height="7.093"/>
        <path d="M438.693,459.288V452.2h14.183V445.1H438.693V452.2H424.511v7.093Z"/>
        <path d="M523.795,473.47h14.182V459.288H523.795Z"/>
        <path d="M509.612,430.92V402.551h3.547V430.92Zm7.093,0V402.551h3.547V430.92Zm-49.643,0h0V416.737h14.182V430.92h14.182V402.555h3.547v28.369h3.546V402.555h3.547v28.369h3.546v14.182h14.183v14.182h14.182V430.92h0V416.737H594.71V360h-85.1v14.182H452.879v42.294H438.7v14.438q14.183.007,28.365,0Z"/>
        <path d="M523.795,508.928v7.093H509.612v28.368h14.183v7.093h14.182v-42.55q-7.092-.006-14.182,0Z"/>
        <rect x="537.981" y="501.839" width="14.182" height="7.093"/>
        <path d="M509.612,558.572H481.248v14.182h56.733V558.572Z"/>
        <path d="M456.426,501.839h3.547V487.656h-3.547Z"/>
        <rect x="449.333" y="487.652" width="3.547" height="14.182"/>
        <path d="M463.515,501.839h17.729v-7.093H467.062v-7.094h-3.547Z"/>
        <rect x="442.24" y="487.652" width="3.547" height="14.182"/>
        <path d="M552.163,501.839v-7.093H537.981v7.089h14.182Z" fill="#f605f6"/>
        <rect x="523.795" y="551.478" width="14.182" height="7.093" fill="#f605f6"/>
        <path d="M467.062,459.288H452.88V473.47h14.182Z" fill="#f605f6"/>
        <path d="M481.244,494.746v-7.094H467.062v7.094Z" fill="#f605f6"/>
        <path d="M509.612,508.928v-7.093H495.43v7.093Z" fill="#f605f6"/>
        <rect x="481.244" y="508.928" width="14.182" height="7.093" fill="#f9f40a"/>
        <rect x="417.418" y="430.92" width="3.547" height="14.182" fill="#fff"/>
        <rect x="424.511" y="430.92" width="3.547" height="14.182" fill="#fff"/>
        <rect x="410.329" y="430.92" width="3.547" height="14.182" fill="#fff"/>
        <rect x="420.965" y="430.92" width="3.547" height="14.182"/>
        <rect x="413.875" y="430.92" width="3.547" height="14.182"/>
        <path d="M431.6,430.92h-3.546V445.1H431.6Z"/>
        <rect x="438.693" y="430.92" width="3.547" height="14.182" fill="#fff"/>
        <rect x="445.786" y="430.92" width="3.547" height="14.182" fill="#fff"/>
        <rect x="431.604" y="430.92" width="3.547" height="14.182" fill="#fff"/>
        <rect x="442.24" y="430.92" width="3.547" height="14.182"/>
        <rect x="435.151" y="430.92" width="3.547" height="14.182"/>
        <path d="M452.88,430.92h-3.547V445.1h3.547Z"/>
        <rect x="559.256" y="430.92" width="3.547" height="28.368" fill="#fff"/>
        <rect x="566.345" y="430.92" width="3.547" height="28.368" fill="#fff"/>
        <rect x="552.163" y="430.92" width="3.547" height="28.368" fill="#fff"/>
        <rect x="562.799" y="430.92" width="3.547" height="28.368"/>
        <rect x="555.71" y="430.92" width="3.547" height="28.368"/>
        <path d="M573.438,430.92h-3.546v28.368h3.546Z"/>
        <rect x="580.527" y="430.92" width="3.547" height="28.368" fill="#fff"/>
        <rect x="587.621" y="430.92" width="3.547" height="28.368" fill="#fff"/>
        <rect x="573.438" y="430.92" width="3.547" height="28.368" fill="#fff"/>
        <rect x="584.074" y="430.92" width="3.547" height="28.368"/>
        <rect x="576.985" y="430.92" width="3.547" height="28.368"/>
        <path d="M594.714,430.92h-3.547v28.368h3.547Z"/>
        <rect x="431.604" y="388.369" width="3.547" height="14.182" fill="#fff"/>
        <rect x="438.693" y="388.369" width="3.547" height="14.182" fill="#fff"/>
        <rect x="424.511" y="388.369" width="3.547" height="14.182" fill="#fff"/>
        <rect x="435.151" y="388.369" width="3.547" height="14.182"/>
        <rect x="428.058" y="388.369" width="3.547" height="14.182"/>
        <path d="M445.786,388.369H442.24v14.182h3.546Z"/>
        <rect x="452.88" y="388.369" width="3.547" height="14.182" fill="#fff"/>
        <rect x="459.969" y="388.369" width="3.547" height="14.182" fill="#fff"/>
        <rect x="445.786" y="388.369" width="3.547" height="14.182" fill="#fff"/>
        <rect x="456.426" y="388.369" width="3.547" height="14.182"/>
        <rect x="449.333" y="388.369" width="3.547" height="14.182"/>
        <path d="M467.062,388.369h-3.547v14.182h3.547Z"/>
      </g>
      <g>
        <rect x="630.194" y="430.919" width="14.182" height="14.182" fill="#bffdfd"/>
        <rect x="644.38" y="430.919" width="14.182" height="14.182" fill="#80fcfa"/>
        <rect x="658.563" y="430.919" width="0.128" height="14.182" fill="#40faf8"/>
        <polygon points="672.745 445.105 672.745 430.919 658.707 430.919 658.679 445.105 672.745 445.105" fill="#40faf8"/>
        <polygon points="672.745 430.919 672.745 430.919 672.745 445.105 686.931 445.105 686.931 430.919 679.838 430.919 672.745 430.919" fill="#00f8f5"/>
        <path d="M686.931,558.571c-42.551,0-56.733-28.849-56.733-53.655V445.105H616.016v55.664c0,37.287,22.592,71.988,70.915,71.988V558.571Z" fill="#10f413"/>
        <polygon points="616.012 402.555 616.012 402.555 630.194 402.555 616.012 402.555" fill="#10f413"/>
        <rect x="616.012" y="416.737" width="14.182" height="14.182" fill="#10f413"/>
        <polygon points="630.194 374.186 623.105 374.186 616.012 374.186 616.012 360.004 616.012 374.186 630.194 374.186" fill="#10f413"/>
        <polygon points="644.38 374.186 644.38 374.186 637.287 374.186 630.194 374.186 644.38 374.186" fill="#0500fe"/>
        <rect x="630.194" y="416.737" width="14.182" height="14.182" fill="#0500fe"/>
        <path d="M644.38,506.117V445.105H630.2V504.92c0,24.806,14.182,53.655,56.733,53.655V544.393c-28.156,0-42.551-18.125-42.551-38.276Z" fill="#0500fe"/>
        <polygon points="644.38 402.555 644.38 402.555 630.194 402.555 644.38 402.555" fill="#0500fe"/>
        <polygon points="686.931 516.02 686.931 516.02 686.931 516.212 686.931 516.02" fill="#f9f40a"/>
        <polygon points="686.931 430.919 686.931 430.919 679.838 430.919 686.931 430.919" fill="#f9f40a"/>
        <path d="M672.745,494.989c0,11.721,1.473,21.031,14.182,21.031V445.105H672.745Z" fill="#f9f40a"/>
        <rect x="630.194" y="374.186" width="14.182" height="28.368" fill="#fff"/>
        <rect x="644.38" y="402.555" width="14.182" height="14.182" fill="#fff"/>
        <rect x="616.012" y="402.555" width="14.182" height="14.182" fill="#fff"/>
        <rect x="644.38" y="360.004" width="7.093" height="14.182" fill="#fff"/>
        <rect x="630.194" y="360.004" width="7.093" height="14.182" fill="#fff"/>
        <rect x="616.012" y="360.004" width="7.093" height="14.182" fill="#fff"/>
        <polygon points="658.563 374.186 658.563 374.186 658.563 402.555 658.763 402.555 662.109 402.555 662.109 374.186 665.656 374.186 665.656 402.555 669.198 402.555 669.198 374.186 665.656 374.186 665.656 360.004 658.851 360.004 658.563 360.004 658.563 374.186" fill="#fff"/>
        <rect x="616.012" y="430.919" width="14.182" height="14.182" fill="#fff"/>
        <path d="M676.291,402.555V374.186h3.547v28.369Zm-3.546-28.369h0v42.551h14.182V402.555h-3.546V374.186h-3.547V360h-7.093Z" fill="#fff"/>
        <polygon points="658.563 374.186 658.563 374.186 651.47 374.186 644.38 374.186 658.563 374.186" fill="#f70302"/>
        <path d="M658.563,501.838l.116-56.733h-14.3v61.012c0,20.151,14.395,38.272,42.551,38.272V530.207C667.417,530.2,658.563,520.251,658.563,501.838Z" fill="#f70302"/>
        <polygon points="644.38 430.919 658.563 430.919 658.707 430.919 658.735 416.737 658.563 416.737 644.38 416.737 644.38 430.919" fill="#f70302"/>
        <polygon points="644.38 402.555 644.38 402.555 658.563 402.555 644.38 402.555" fill="#f70302"/>
        <rect x="616.012" y="374.186" width="14.182" height="28.368"/>
        <rect x="644.38" y="374.186" width="14.182" height="28.368"/>
        <rect x="630.194" y="402.555" width="14.182" height="14.182"/>
        <polygon points="644.38 374.186 644.38 374.186 644.38 360.004 637.287 360.004 637.287 374.186 644.38 374.186"/>
        <polygon points="630.194 374.186 630.194 374.186 630.194 360.004 623.105 360.004 623.105 374.186 630.194 374.186"/>
        <path d="M686.931,360h-7.089v14.182h3.547v28.369h3.546v170.2c39.168,0,70.919-30.226,70.919-67.512V360Z"/>
        <polygon points="669.198 374.186 669.198 374.186 669.198 402.555 665.656 402.555 665.656 374.186 662.109 374.186 662.109 402.555 658.763 402.555 658.563 402.555 658.563 416.737 658.735 416.737 672.745 416.737 672.745 402.555 672.745 374.186 672.745 360.004 665.656 360.004 665.656 374.186 669.198 374.186"/>
        <rect x="651.47" y="360.004" width="7.093" height="14.182"/>
        <rect x="676.291" y="374.186" width="3.547" height="28.368"/>
        <path d="M672.745,494.989V445.105h-14.07l-.116,56.733c0,18.413,8.854,28.365,28.368,28.365V516.016c-12.709,0-14.182-9.306-14.182-21.027Z" fill="#f605f6"/>
        <polygon points="658.735 416.737 658.707 430.919 672.745 430.919 679.838 430.919 686.931 430.919 686.931 416.737 672.745 416.737 658.735 416.737" fill="#f605f6"/>
      </g>
      <g>
        <path d="M889.68,466.717c0-.008-.012-.016-.016-.024.04.06.08.116.12.176C889.748,466.817,889.716,466.765,889.68,466.717Z" fill="#8052c1"/>
        <path d="M889.9,467.045l.008.012s0-.008-.008-.012Z" fill="#8052c1"/>
        <path d="M922.412,418.4l8.79-13.253Q926.807,411.778,922.412,418.4Z" fill="#21119c"/>
        <path d="M895.624,424.807v-8.07H881.442v14.182h14.182V441.05a27,27,0,0,1,9.207,3.859l8.79-13.253a43.244,43.244,0,0,0-18-6.849Z" fill="#00f8f5"/>
        <polygon points="866.924 430.911 866.912 430.919 867.256 430.919 867.256 430.911 866.924 430.911" fill="#00f8f5"/>
        <path d="M889.952,467.113l-8.514-12.4q4.191,6.118,8.394,12.233C889.872,467,889.912,467.057,889.952,467.113Z" fill="#00f8f5"/>
        <path d="M855.379,416.737h11.877V402.555H853.074v14.182Z" fill="#00f8f5"/>
        <path d="M913.617,431.656q4.4-6.624,8.791-13.254h0Z" fill="#10f413"/>
        <polygon points="889.972 467.141 889.952 467.113 889.972 467.145 889.972 467.141" fill="#10f413"/>
        <path d="M889.984,467.161l.04.06a.521.521,0,0,0-.04-.06Z" fill="#10f413"/>
        <polygon points="889.984 467.157 889.984 467.161 889.972 467.145 889.984 467.157" fill="#10f413"/>
        <path d="M889.984,467.161a.055.055,0,0,1,.012.016.055.055,0,0,0-.012-.016Z" fill="#10f413"/>
        <path d="M889.952,467.113a.334.334,0,0,1-.032-.048l.048.068Z" fill="#10f413"/>
        <path d="M889.972,467.141l.012.016A.055.055,0,0,1,889.972,467.141Z" fill="#10f413"/>
        <path d="M836.386,388.917H824.705v27.82h14.182V388.368a28.438,28.438,0,0,0,5.26,0c1.73-.352,3.659-1.885,5.284-2.677q3.555-1.724,7.249-3.131a91.249,91.249,0,0,1,83.312,9.339l8.791-13.254c-35.934-23.633-83.34-24.009-119.254-.016l6.949,10.288Z" fill="#10f413"/>
        <path d="M933.307,387.832a92.023,92.023,0,0,0-88.98.536h22.929v7.454a75.923,75.923,0,0,1,63.946,9.331l8.79-13.254c-2.177-1.437-4.4-2.806-6.685-4.067Z" fill="#0500fe"/>
        <path d="M889.68,466.717l-.056-.08C889.64,466.661,889.66,466.689,889.68,466.717Z" fill="#0500fe"/>
        <path d="M867.256,416.737h14.182V402.555H867.256v14.182Z" fill="#0500fe"/>
        <path d="M853.074,403.1v0Z" fill="#0500fe"/>
        <path d="M913.293,431.443l.324.213,8.791-13.254a59.708,59.708,0,0,0-26.788-9.627v-6.22H881.438v14.182H895.62v8.07a42.824,42.824,0,0,1,17.673,6.636Z" fill="#f605f6"/>
        <path d="M865.11,430.919c.717,0,1.433,0,2.146-.008V416.737H853.074v14.174c4.007,0,8.037-.052,12.036.008Z" fill="#f605f6"/>
        <path d="M889.9,467.033l-.024-.036c.012.016.024.036.036.052Z" fill="#f9f40a"/>
        <path d="M889.844,466.957l0,0c.016.028.036.052.052.076Z" fill="#f9f40a"/>
        <path d="M889.776,466.861c-.148-.216-.3-.428-.44-.644.156.228.312.452.468.68Z" fill="#f9f40a"/>
        <path d="M889.776,466.861c.1.152.04.056-.088-.124a1.383,1.383,0,0,1,.088.124Z" fill="#f9f40a"/>
        <path d="M904.827,444.909q4.395-6.622,8.79-13.253Q909.222,438.279,904.827,444.909Z" fill="#f9f40a"/>
        <path d="M889.992,467.173l.032.048A.334.334,0,0,0,889.992,467.173Z" fill="#f9f40a"/>
        <polygon points="889.996 467.173 890 467.185 889.984 467.161 889.996 467.173" fill="#f9f40a"/>
        <polygon points="889.992 467.173 889.996 467.173 889.984 467.161 889.992 467.173" fill="#f9f40a"/>
        <path d="M890,467.173l.032.048A.334.334,0,0,1,890,467.173Z" fill="#f9f40a"/>
        <path d="M838.887,473.47v-9.455h0v9.455Z" fill="#fff"/>
        <path d="M824.705,417.285v13.634h14.182v29.313h0V445.1H853.07V430.919H838.887V416.737H824.705Z" fill="#fff"/>
        <path d="M810.523,430.919v28.369h-3.546V445.105H803.43v14.183h-3.547V445.105h-3.546V473.47h17.729V445.1h3.546V473.47h3.547V445.1h3.546V430.919H810.523V417.285H796.341v13.634Z" fill="#fff"/>
        <path d="M824.705,460.468v13.006h3.547V445.105h-3.547Z" fill="#fff"/>
        <path d="M835.341,473.47V445.1h-3.547V473.47Z" fill="#fff"/>
        <path d="M856.616,402.555V388.372H853.07v14.183Z" fill="#fff"/>
        <rect x="860.163" y="388.368" width="3.547" height="14.182" fill="#fff"/>
        <rect x="838.887" y="388.368" width="3.547" height="14.182" fill="#fff"/>
        <path d="M845.981,388.917v13.634h3.546V388.368h-3.546Z" fill="#fff"/>
        <polygon points="789.248 459.275 789.248 459.288 792.794 459.288 792.794 445.105 789.248 445.105 789.248 459.275" fill="#fff"/>
        <path d="M881.438,473.47v-9.455H867.256v9.455Z" fill="#fff"/>
        <path d="M874.889,445.105h-36v15.131h14.182v3.783H838.891v9.455h14.183v-9.455h14.182v-3.783H853.078V445.105H867.26v15.131h14.182V445.105Z" fill="#fff"/>
        <path d="M867.256,395.822v6.733h28.368v6.22a60,60,0,0,1,26.788,9.627l8.79-13.253a75.936,75.936,0,0,0-63.946-9.327Z" fill="#f70302"/>
        <path d="M889.284,466.14l.052.08a.794.794,0,0,0-.052-.08Z"/>
        <path d="M889.964,467.133l0,.008Z"/>
        <path d="M889.84,466.949l.032.044a.419.419,0,0,1-.032-.044Z"/>
        <path d="M889.82,466.921c.008.008.012.02.02.028A.169.169,0,0,1,889.82,466.921Z"/>
        <polygon points="889.928 467.077 889.948 467.109 889.92 467.065 889.928 467.077"/>
        <path d="M888.071,464.375c.372.545.748,1.089,1.121,1.633C888.819,465.464,888.447,464.92,888.071,464.375Z"/>
        <path d="M889.832,466.941l.008.012Z"/>
        <path d="M889.324,466.2l-.192-.281c.064.092.128.188.192.28Z"/>
        <path d="M889.972,467.141v0Z"/>
        <polygon points="889.956 467.121 889.964 467.133 889.948 467.109 889.956 467.121"/>
        <path d="M889.984,467.161l-.012-.016.052.076c-.012-.02-.028-.04-.04-.06Z"/>
        <polygon points="889.972 467.141 889.972 467.141 889.968 467.133 889.972 467.141"/>
        <path d="M889.968,467.133l-.048-.068.052.076Z"/>
        <polygon points="889.984 467.157 889.972 467.141 889.984 467.161 889.984 467.157"/>
        <path d="M889.584,466.577l.08.116-.08-.116Z"/>
        <polygon points="889.844 466.953 889.84 466.949 889.844 466.957 889.844 466.953"/>
        <path d="M889.192,466.008l.392.569c-.132-.188-.26-.38-.392-.569Z"/>
        <path d="M889.784,466.865l.04.056a.284.284,0,0,1-.04-.056Z"/>
        <path d="M889.336,466.217c-.02-.033-.044-.065-.064-.093.116.173.232.341.352.513Z"/>
        <path d="M889.132,465.92l-1.061-1.545c.4.585.8,1.165,1.2,1.749Z"/>
        <path d="M889.832,466.941l-.028-.044Z"/>
        <path d="M889.284,466.136l-.148-.216c.048.072.1.144.148.216Z"/>
        <path d="M856.616,402.555h3.547V388.372h-3.547Z"/>
        <path d="M863.709,402.555h3.547V388.372h-3.547Z"/>
        <path d="M904.623,444.773a26.776,26.776,0,0,0-9-3.723V430.919H881.438V416.737H867.256v28.368h14.182v0c0,3.683-1.041,8.09,1.093,11.2q3.747,5.459,7.493,10.92l14.8-22.312Z" fill="#f9f40a"/>
        <path d="M838.887,430.919H853.07V416.737H838.887Z" fill="#f70302"/>
        <path d="M881.438,473.47H867.256v-9.455h14.182ZM838.887,467.8v5.672h0v-9.455h0Zm-3.546-22.685v28.361h-3.547V445.105h3.547Zm-7.089,0v28.361h-3.547V445.105h-3.546v28.369h-3.547V445.105h-3.546v28.369H796.337V459.291h0V445.109h3.546v14.182h3.547V445.109h3.547v14.182h3.546V430.923H796.341V417.289h14.182v13.634h14.182v14.182h3.547Zm-35.458,14.175h-3.546V445.105h3.546Zm97.23,7.933c-2.866-4.171-5.9-8.278-8.586-12.549v5.56H867.256V430.919q-7.084,0-14.182-.008v29.321h14.178v3.783H853.07v9.455H838.887v-9.455H853.07v-3.783H838.887q.018-14.656,0-29.313H824.705v-42h11.773q-3.477-5.152-6.957-10.3a1.538,1.538,0,0,1-.2.145v0c-38.708,26.318-55.176,78.3-40.145,122.259,12.7,37.155,46.045,64.927,84.9,70.607a107.073,107.073,0,0,0,74.509-16.716Z"/>
        <path d="M853.074,416.737h0V403.1h0V388.372h-3.547v14.183h-3.546V388.372h-3.547v14.183h-3.547v14.182Z"/>
        <path d="M838.892,460.224v0Z" fill="#fff"/>
        <polygon points="838.887 460.232 838.887 460.232 838.892 460.232 838.887 460.232" fill="#fff"/>
      </g>
      <g>
        <polygon points="980.401 557.504 970.234 540.131 970.234 572.755 989.328 572.755 980.401 557.504" fill="#10f413"/>
        <path d="M989.328,572.755h20.434q-18.006-28.365-36.014-56.733h-3.514V533.41c0,1.986-.516,4.672,0,6.589.436,1.621,1.913,3.4,2.754,4.84Q981.16,558.792,989.328,572.755Z" fill="#0500fe"/>
        <path d="M984.548,467.623v5.848h14.183v-5.848Z" fill="#0500fe"/>
        <path d="M987.963,430.921h0V416.738h3.546v14.183h-3.546Zm7.093,0h0V416.738h3.675v14.183Zm-10.508,0h0v14.906h14.183v21.8h14.182v-21.8H998.731V430.921h3.418V416.738h-3.418V402.556H984.516v14.182H970.238v14.183Z" fill="#fff"/>
        <rect x="1012.913" y="402.552" width="13.83" height="14.182" fill="#fff"/>
        <rect x="1026.743" y="416.734" width="14.182" height="14.182" fill="#fff"/>
        <path d="M1009.238,430.921h0V416.738h-3.547v14.183Z" fill="#fff"/>
        <path d="M984.42,502.576v13.442h3.547V487.65H984.42Z" fill="#fff"/>
        <path d="M991.509,513.448v2.574h3.547V487.654h-3.547Z" fill="#fff"/>
        <path d="M973.781,516.018V487.65h-3.547v28.368Z" fill="#fff"/>
        <path d="M977.327,493.778v22.24h3.547V487.65h-3.547Z" fill="#fff"/>
        <path d="M993.186,516.018H973.748q18.007,28.365,36.014,56.733H1030.2Q1011.692,544.386,993.186,516.018Z" fill="#f70302"/>
        <path d="M998.574,493.778v0Z" fill="#f70302"/>
        <path d="M1012.913,467.623H998.731v5.848h14.182Z" fill="#f70302"/>
        <path d="M984.548,459.93h0v-14.1h-14.31v14.1Z" fill="#f70302"/>
        <path d="M998.731,467.623h0v-21.8H984.548v21.8Z"/>
        <path d="M984.548,445.827V430.921h-14.31v14.906Z"/>
        <path d="M998.731,430.921h0V416.738h-3.675v14.183Z"/>
        <path d="M991.509,430.921h0V416.738h-3.546v14.183Z"/>
        <path d="M987.963,508.012v8.01h3.546V487.654h-3.546Z"/>
        <path d="M980.874,497.14v18.878h3.546V487.65h-3.546Z"/>
        <path d="M995.056,493.778v22.24h3.518V487.65h-3.518Z"/>
        <path d="M977.327,493.778v-6.124h-3.546v28.368h3.546Z"/>
        <path d="M998.574,516.018H993.19l37.011,56.733h20.435q-20.061-30.334-40.121-60.664c-3.971-6-7.97-12.305-11.941-18.309Z" fill="#f605f6"/>
        <path d="M984.548,472.419V459.93h-14.31v13.541h14.31Z" fill="#f605f6"/>
        <path d="M974.681,487.654H998.57V480.56H970.234v7.094Z" fill="#f605f6"/>
        <path d="M1018.409,493.778H998.574c1.081,1.641,2.7,4.147,3.879,5.932,2.318,3.507,4.632,7.2,6.949,10.7q2.648,4.005,5.3,8.014,13.882,20.985,27.76,41.974,4.083,6.179,8.17,12.357h20.434q-19.082-28.617-38.167-57.233Q1025.659,504.647,1018.409,493.778Z" fill="#00f8f5"/>
        <path d="M1041,480.56h.036v7.094h-6.593l57.061,85.1h19.9l-70.475-105.12Z" fill="#10f413"/>
        <path d="M1026.743,467.623h-13.83v5.848h13.83Z" fill="#10f413"/>
        <path d="M1012.913,487.654h13.83V480.56H998.574v13.218h14.343v-6.124Z" fill="#0500fe"/>
        <path d="M1026.743,487.654v6.124h-8.338q3.374,5.055,6.744,10.111,3.879,5.813,7.754,11.629,15.666,23.495,31.339,46.993,3.416,5.123,6.828,10.244h20.435l-57.061-85.1Z" fill="#f9f40a"/>
        <path d="M1025.149,503.889q-3.367-5.055-6.744-10.111,7.246,10.868,14.5,21.74Q1029.024,509.705,1025.149,503.889Z" fill="#f9f40a"/>
        <path d="M1040.324,467.623h-13.581v5.848h14.182v-5.848Z" fill="#f9f40a"/>
        <path d="M1033.86,445.827h-7.121v21.8h7.121Z" fill="#fff"/>
        <path d="M1026.743,445.371V430.917h-13.83v14.906h13.83Z" fill="#fff"/>
        <path d="M1040.925,430.921v35.213l.48.721,6.641-10.612V430.917h-7.121Z" fill="#fff"/>
        <path d="M1040.933,467.611l-.008-1.477v1.489Z" fill="#fff"/>
        <polygon points="1041.405 466.855 1040.925 466.134 1040.933 467.611 1041.405 466.855" fill="#fff"/>
        <path d="M1040.332,480.56h-13.589v7.094h14.294L1041,480.56h-.669Z" fill="#f70302"/>
        <polygon points="1041.037 480.56 1041.001 480.56 1041.037 487.654 1041.037 480.56" fill="#f70302"/>
        <path d="M1033.86,467.623h7.065v-36.7h-14.182v14.906h7.121q-.006,10.9,0,21.8Z"/>
        <path d="M1012.913,416.734v14.183h13.83V416.734Z"/>
        <path d="M1009.238,430.921h-3.547V416.738h3.547Zm3.675-14.187V402.552h13.83v14.182h14.182v14.183h7.121v25.118L1112.068,360H970.234v56.732h14.278V402.552h14.214v14.182h3.419v14.183h-3.419v14.906h14.183V430.917q.006-7.092,0-14.183Z"/>
        <path d="M1026.743,459.93v-14.1h-13.83v21.8h13.83Z"/>
        <path d="M1031.7,480.56h9.227v-7.093H970.234v7.093H1031.7Z"/>
        <path d="M1012.913,493.778h13.83v-6.124h-13.83Z" fill="#f605f6"/>
        <polygon points="1040.933 467.635 1040.933 467.623 1040.925 467.623 1040.933 467.635" fill="#fff"/>
        <polygon points="1040.925 467.623 1040.933 467.623 1040.933 467.611 1040.925 467.623" fill="#fff"/>
        <path d="M1040.933,467.611v.012h.985l-.513-.768Z" fill="#fff"/>
      </g>
    </g>
  </g>
</svg>
